Coordinates
version=1
nRows=13
nColumns=22
inDegrees=yes

Units are S.I. units (second, meters, Newtons, ...)
If the header above contains a line with 'inDegrees', this indicates whether rotational values are in degrees (yes) or radians (no).

endheader
time	pelvis_tilt	pelvis_list	pelvis_rotation	pelvis_tx	pelvis_ty	pelvis_tz	hip_flexion_r	hip_adduction_r	hip_rotation_r	knee_angle_r	ankle_angle_r	subtalar_angle_r	hip_flexion_l	hip_adduction_l	hip_rotation_l	knee_angle_l	ankle_angle_l	subtalar_angle_l	lumbar_extension	lumbar_bending	lumbar_rotation
      4.24000000	      4.50814207	     -3.68342290	      5.78887041	      0.50538439	      1.08522523	     -0.27629291	     -1.85159128	      8.67455981	     -6.04430370	     -6.29119781	      5.35918786	     -4.29777503	     12.37331045	     -5.34520205	      5.82987423	    -37.83165239	     15.94797729	      4.57311590	     -7.06198371	      2.54855224	     -0.02934056
      4.25000000	      4.50015156	     -3.60231385	      5.57787851	      0.50885000	      1.08536841	     -0.27623802	     -2.06371324	      8.59127542	     -5.87801476	     -6.29441171	      5.49788942	     -4.27516155	     12.07751075	     -5.15305669	      5.99981363	    -36.55892439	     16.22128669	      4.83703966	     -7.03019207	      2.47025437	      0.13566495
      4.26000000	      4.50710924	     -3.54115593	      5.37490676	      0.51227021	      1.08552605	     -0.27621681	     -2.28745542	      8.52721571	     -5.71257788	     -6.29396432	      5.61000683	     -4.23561620	     11.75464689	     -4.97747277	      6.20795033	    -35.36779450	     16.44526410	      5.12979185	     -7.00215849	      2.41466835	      0.27388320
      4.27000000	      4.50079620	     -3.49256769	      5.17329184	      0.51562793	      1.08565086	     -0.27622093	     -2.48303479	      8.47083436	     -5.55051929	     -6.30977786	      5.72957237	     -4.18673166	     11.43935121	     -4.81186038	      6.43452303	    -34.26409974	     16.58942973	      5.40244923	     -6.94900460	      2.36811735	      0.39237286
      4.28000000	      4.49324390	     -3.45785065	      4.97473351	      0.51893030	      1.08576016	     -0.27625044	     -2.66707636	      8.42541268	     -5.38812737	     -6.33600903	      5.84962494	     -4.12997717	     11.11996086	     -4.66354148	      6.66115632	    -33.24611350	     16.64526429	      5.65215148	     -6.88588927	      2.33323798	      0.49175222
      4.29000000	      4.48734994	     -3.44031058	      4.78538901	      0.52217708	      1.08585105	     -0.27630942	     -2.84898084	      8.39592126	     -5.21850225	     -6.35957004	      5.96511082	     -4.06463453	     10.79629245	     -4.53997619	      6.87561631	    -32.31179875	     16.62318274	      5.85788367	     -6.81653772	      2.31485904	      0.56277874
      4.30000000	      4.44639621	     -3.42154393	      4.59510859	      0.52535775	      1.08587509	     -0.27640137	     -2.97405735	      8.35692320	     -5.07083486	     -6.41265169	      6.10582411	     -4.01577687	     10.50676397	     -4.42068304	      7.04944355	    -31.45642553	     16.45631341	      5.96484922	     -6.70101804	      2.28756724	      0.62985643
      4.31000000	      4.37728415	     -3.42345470	      4.42774474	      0.52847343	      1.08583085	     -0.27653716	     -3.07537044	      8.33824070	     -4.90189787	     -6.44228225	      6.23040100	     -3.97870952	     10.25616668	     -4.32972737	      7.19752142	    -30.68648849	     16.18391093	      6.00864740	     -6.54706106	      2.28045424	      0.63848512
      4.32000000	      4.38804538	     -3.41118985	      4.23863656	      0.53157804	      1.08589171	     -0.27667358	     -3.25243687	      8.30496037	     -4.74989901	     -6.49506250	      6.37377498	     -3.90800380	      9.88626330	     -4.25282568	      7.24310084	    -29.94496836	     15.85503620	      5.92593134	     -6.48214852	      2.25561228	      0.69014900
      4.33000000	      4.37285462	     -3.42969465	      4.07921845	      0.53462149	      1.08587836	     -0.27686982	     -3.40820591	      8.30320206	     -4.59136782	     -6.52238556	      6.51181320	     -3.84943838	      9.55850602	     -4.21669835	      7.24373107	    -29.28499972	     15.41432118	      5.70854091	     -6.38015126	      2.26558420	      0.67299785
      4.34000000	      4.33044143	     -3.43440720	      3.92440759	      0.53761351	      1.08580890	     -0.27710019	     -3.52776048	      8.28193607	     -4.44934314	     -6.55888268	      6.64413583	     -3.80598045	      9.24543793	     -4.18088620	      7.16356202	    -28.66132079	     14.94703969	      5.43003251	     -6.24641041	      2.25183280	      0.65786198
      4.35000000	      4.32298363	     -3.46591186	      3.79208713	      0.54056433	      1.08575125	     -0.27738960	     -3.69032928	      8.29132084	     -4.31186196	     -6.57682679	      6.78376817	     -3.75656818	      8.89758909	     -4.19193964	      7.00523695	    -28.09304387	     14.45586059	      4.95840849	     -6.14880329	      2.27495204	      0.58340365
      4.36000000	      4.29169702	     -3.48526178	      3.66473565	      0.54348571	      1.08564732	     -0.27770791	     -3.82794290	      8.28489016	     -4.18843827	     -6.59085574	      6.92716888	     -3.71606623	      8.55474829	     -4.20149802	      6.79025588	    -27.54430879	     13.99833580	      4.49807205	     -6.01728107	      2.27448236	      0.52241048
